<svg xmlns="http://www.w3.org/2000/svg" viewBox="0 0 302.87 52.77"><defs><style>.cls-1{fill:#d92d27;}</style></defs><g id="Layer_2" data-name="Layer 2"><g id="Layer_1-2" data-name="Layer 1"><path class="cls-1" d="M46.46,9.26a26.22,26.22,0,0,1,6.31,17.09c0,11.95-7.18,19.16-14.89,19.16a16.7,16.7,0,0,1-9.67-3C40.5,37.27,47.73,26.53,47.73,17.36a26,26,0,0,0-1.27-8.1M9.26,6.31A26,26,0,0,1,17.36,5c9.16,0,19.91,7.23,25.12,19.52a16.72,16.72,0,0,0,3-9.67C45.51,7.18,38.3,0,26.35,0A26.22,26.22,0,0,0,9.26,6.31M6.31,43.51A26,26,0,0,1,5,35.41c0-9.16,7.23-19.91,19.52-25.12a16.72,16.72,0,0,0-9.67-3C7.18,7.26,0,14.47,0,26.42A26.22,26.22,0,0,0,6.31,43.51m37.2,3a26,26,0,0,1-8.1,1.27c-9.17,0-19.91-7.23-25.12-19.52a16.7,16.7,0,0,0-3,9.67c0,7.71,7.21,14.89,19.16,14.89a26.22,26.22,0,0,0,17.09-6.31"/><path class="cls-1" d="M104.57,26.42c0-12.07,7-20.39,18.54-20.39s18.53,8.38,18.53,20.39c0,12.18-7.19,20.32-18.53,20.32s-18.54-8.14-18.54-20.32m29.5,0c0-8.81-3.58-14.3-11-14.3-7.22,0-11,5.25-11,14.3s3.76,14.23,11,14.23,11-5.25,11-14.23"/><polyline class="cls-1" points="193.11 6.53 193.11 46.24 217.62 46.24 217.62 40.34 200.34 40.34 200.34 28.95 215.57 28.95 215.57 23.04 200.34 23.04 200.34 12.43 215.63 12.43 217.56 6.53 193.11 6.53"/><path class="cls-1" d="M170.33,24.81l-1.87,5.74h6v8.89a12.38,12.38,0,0,1-5.76,1.21c-8.39,0-12.56-5.61-12.56-14.17S160.42,12.12,169,12.12a17.19,17.19,0,0,1,9,2.68l2-6.09A25.62,25.62,0,0,0,168.47,6C156.34,6,148.62,14.89,148.62,27c0,11.4,6.83,19.78,19.6,19.78a29.36,29.36,0,0,0,13.45-3.19V24.81H170.33Z"/><path class="cls-1" d="M71.15,6.53h12c11,0,14.39,6.8,14.39,12.1a11.37,11.37,0,0,1-7.26,10.89v.26c.78.22,2.44,1,4.6,4.88l6.56,11.58H93.28l-5.68-10c-2.28-4.11-3.21-5.43-6.86-5.43H78.21V46.24H71.15V6.53M82.93,24.87c6.07,0,7.33-3.8,7.33-6.28,0-2.11-1.09-6.15-7.33-6.15H78.21V24.87Z"/><path class="cls-1" d="M227.81,6.53h12c11,0,14.38,6.8,14.38,12.1a11.37,11.37,0,0,1-7.26,10.89v.26c.78.22,2.44,1,4.6,4.88l6.57,11.58h-8.13l-5.67-10c-2.29-4.11-3.21-5.43-6.87-5.43h-2.53V46.24h-7.06V6.53m11.78,18.34c6.08,0,7.33-3.8,7.33-6.28,0-2.11-1.09-6.15-7.33-6.15h-4.72V24.87Z"/><path class="cls-1" d="M270.84,16.59c0-3.14,3-4.49,6.3-4.49a23.4,23.4,0,0,1,8.61,1.75V7.21A30.09,30.09,0,0,0,276.47,6c-8.68,0-13.35,5.12-13.35,11s4.73,8.83,8.67,10.92l2.85,1.52c3.26,1.74,5.66,3.1,5.66,6.12,0,3.44-3.31,5.06-6.63,5.06A19.27,19.27,0,0,1,264,38.23l-1.92,5.86a25.37,25.37,0,0,0,11.73,2.64C281.94,46.73,288,42,288,34.92c0-5-3.41-8.18-9-11.16l-2.64-1.41C273.25,20.7,270.84,19.39,270.84,16.59Z"/><path class="cls-1" d="M295.74,45.22h0l1.31-3.39h1v4.42h-.62v-3.7h0l-1.47,3.7h-.39l-1.46-3.7h0v3.7h-.59V41.83h1Z"/><path class="cls-1" d="M302.87,45.56a2,2,0,0,1-1.68.8,2.33,2.33,0,1,1,0-4.65,2,2,0,0,1,1.59.69l-.49.37a1.39,1.39,0,0,0-1.1-.51,1.78,1.78,0,0,0,0,3.55,1.39,1.39,0,0,0,1.18-.59Z"/></g></g></svg>